<svg id="Layer_1" data-name="Layer 1" xmlns="http://www.w3.org/2000/svg" viewBox="0 0 39 34"><defs><style>.cls-1{fill:#fff;}.cls-1,.cls-2{stroke:#231f20;stroke-miterlimit:10;stroke-width:0.5px;}.cls-2{fill:none;}</style></defs><path class="cls-1" d="M11.22,22.62a1,1,0,0,0-.42.62L9.29,30.52a1,1,0,0,0,.77,1.19l.68.14a1,1,0,0,0,1.18-.78l1.4-6.71L21,17.79a1,1,0,0,0,.11-1.4l-.45-.53a1,1,0,0,0-1.4-.11l-8,6.82Z"/><rect class="cls-1" x="13.79" y="24.77" width="2.69" height="7.9" rx="1.34" transform="translate(24.08 59.94) rotate(-168.22)"/><path class="cls-1" d="M10.19,21.42a1,1,0,0,1-.67.31l-7.44.33a1,1,0,0,1-1-.95l0-.69a1,1,0,0,1,1-1l6.86-.31,7.71-6.56a1,1,0,0,1,1.41.11l.44.53a1,1,0,0,1-.11,1.4l-8,6.83Z"/><rect class="cls-1" x="3.45" y="12.63" width="2.69" height="7.9" rx="1.34" transform="translate(21.14 11.04) rotate(87.42)"/><path class="cls-1" d="M36.67,9.33l1.1-1.08a.2.2,0,0,0-.11-.35l-1.48-.21A.21.21,0,0,1,36,7.45L36.25,6A.21.21,0,0,0,36,5.8l-1.31.69a.21.21,0,0,1-.28-.09L33.67,5a.21.21,0,0,0-.37,0l-.69,1.4a.21.21,0,0,1-.28.09L31,5.8a.21.21,0,0,0-.3.22L31,7.45a.21.21,0,0,1-.18.24l-1.47.21a.21.21,0,0,0-.12.35l1.11,1.08a.22.22,0,0,1,0,.3L29.2,10.71a.21.21,0,0,0,.12.35l1.47.21a.21.21,0,0,1,.18.24l-.25,1.43a.21.21,0,0,0,.3.22l1.31-.69a.21.21,0,0,1,.28.09L33.3,14a.2.2,0,0,0,.37,0l.69-1.39a.21.21,0,0,1,.28-.09l1.31.69a.21.21,0,0,0,.3-.22L36,11.51a.21.21,0,0,1,.17-.24l1.48-.21a.2.2,0,0,0,.11-.35l-1.1-1.08A.2.2,0,0,1,36.67,9.33Z"/><path class="cls-2" d="M16.86,12.22c7.93-5.06,10.12,6.94,18.66,2"/><line class="cls-2" x1="17.3" y1="10.33" x2="17.87" y2="11.66"/><line class="cls-2" x1="19.53" y1="11.07" x2="19.31" y2="9.65"/><line class="cls-2" x1="21.19" y1="10.98" x2="21.43" y2="9.53"/><line class="cls-2" x1="22.99" y1="11.44" x2="23.5" y2="10.02"/><line class="cls-2" x1="24.5" y1="12.23" x2="25.35" y2="11"/><line class="cls-2" x1="26.14" y1="13.3" x2="26.9" y2="12.02"/><line class="cls-2" x1="27.94" y1="14.43" x2="28.58" y2="12.85"/><line class="cls-2" x1="29.96" y1="15.26" x2="30.23" y2="13.7"/><line class="cls-2" x1="31.96" y1="15.45" x2="31.95" y2="13.66"/><line class="cls-2" x1="33.79" y1="15.07" x2="33.18" y2="13.28"/><path class="cls-1" d="M27.09,5.62,28.2,4.55a.22.22,0,0,0-.12-.36L26.61,4a.21.21,0,0,1-.18-.24l.25-1.43a.21.21,0,0,0-.3-.22l-1.31.69a.2.2,0,0,1-.28-.09L24.1,1.3a.2.2,0,0,0-.37,0L23,2.69a.2.2,0,0,1-.28.09l-1.31-.69a.21.21,0,0,0-.3.22l.24,1.43a.21.21,0,0,1-.17.24l-1.48.21a.21.21,0,0,0-.11.36l1.1,1.07a.2.2,0,0,1,0,.3L19.63,7a.2.2,0,0,0,.11.35l1.48.22a.2.2,0,0,1,.17.24l-.24,1.42a.21.21,0,0,0,.3.22l1.31-.69a.21.21,0,0,1,.28.09l.69,1.4a.21.21,0,0,0,.37,0l.69-1.4a.21.21,0,0,1,.28-.09l1.31.69a.21.21,0,0,0,.3-.22l-.25-1.42a.2.2,0,0,1,.18-.24l1.47-.22A.21.21,0,0,0,28.2,7L27.09,5.92A.22.22,0,0,1,27.09,5.62Z"/></svg>