<svg id="Layer_1" data-name="Layer 1" xmlns="http://www.w3.org/2000/svg" viewBox="0 0 39 34"><defs><style>.cls-1{fill:#fff;}.cls-1,.cls-2{stroke:#231f20;stroke-miterlimit:10;stroke-width:0.5px;}.cls-2{fill:none;}.cls-3{fill:#231f20;}</style></defs><path class="cls-1" d="M13.08,22.31a1,1,0,0,0-.41.62l-1.52,7.28a1,1,0,0,0,.77,1.18l.68.14a1,1,0,0,0,1.18-.77L15.18,24l7.71-6.56A1,1,0,0,0,23,16.07l-.44-.52a1,1,0,0,0-1.41-.12l-8,6.83S13.1,22.29,13.08,22.31Z"/><rect class="cls-1" x="15.65" y="24.46" width="2.69" height="7.9" rx="1.34" transform="translate(27.83 59.7) rotate(-168.22)"/><path class="cls-1" d="M12.06,21.1a1,1,0,0,1-.68.32L4,21.75A1,1,0,0,1,2.9,20.8l0-.69a1,1,0,0,1,1-1.05l6.85-.3,7.71-6.57a1,1,0,0,1,1.41.12l.45.52a1,1,0,0,1-.12,1.41l-8,6.82Z"/><rect class="cls-1" x="5.31" y="12.31" width="2.69" height="7.9" rx="1.34" transform="translate(22.61 8.89) rotate(87.42)"/><rect class="cls-2" x="9.11" y="3.87" width="7.88" height="7.88"/><path class="cls-3" d="M11.13,5.06a.31.31,0,0,0-.32-.24c-.31,0-.42.29-.42.71a.45.45,0,0,1,.43-.27.48.48,0,0,1,.49.54.51.51,0,0,1-.51.57c-.43,0-.54-.36-.54-.81s.14-.85.56-.85a.42.42,0,0,1,.44.35Zm0,.74c0-.19-.08-.42-.37-.42a.39.39,0,0,0-.4.43c0,.13.08.45.39.45S11.18,6,11.18,5.8Z"/><path class="cls-3" d="M11.61,5.1a.43.43,0,0,1,.47-.39.4.4,0,0,1,.45.4.34.34,0,0,1-.23.34h0a.4.4,0,0,1,.3.42.53.53,0,0,1-1,.07h.13a.39.39,0,0,0,.4.32.36.36,0,0,0,.39-.39c0-.25-.17-.35-.41-.35H12V5.4H12c.25,0,.35-.1.35-.29s-.11-.28-.32-.28a.31.31,0,0,0-.34.27Z"/><polygon class="cls-3" points="12.02 10.43 12.02 7.43 13.93 7.43 13.93 7.83 12.43 7.83 12.43 8.65 13.86 8.65 13.86 9.05 12.43 9.05 12.43 10.03 14.02 10.03 13.95 10.43 12.02 10.43"/><path class="cls-3" d="M13.76,9H12.33v1.18H13.9l0,.2H12.12V7.53h1.71v.2h-1.5v1h1.43Z"/><path class="cls-3" d="M15,10.47c-.49,0-.76-.29-.76-.82V8.23h.4V9.6c0,.42.2.48.39.48s.51-.12.51-.73V8.23h.4v2.19h-.37s0-.11,0-.13A.81.81,0,0,1,15,10.47Z"/><path class="cls-3" d="M15.79,9.74v.59H15.6a3,3,0,0,1,0-.35.61.61,0,0,1-.64.39c-.29,0-.66-.11-.66-.72V8.33h.2V9.6c0,.29.09.58.49.58s.61-.25.61-.83v-1h.2Z"/></svg>