<svg id="Layer_1" data-name="Layer 1" xmlns="http://www.w3.org/2000/svg" viewBox="0 0 39 34"><defs><style>.cls-1{fill:none;}.cls-1,.cls-2{stroke:#231f20;stroke-miterlimit:10;stroke-width:0.5px;}.cls-2{fill:#fff;}</style></defs><path class="cls-1" d="M2.54,27.36c2.25-9.14,12.1-2,14.92-11.39"/><line class="cls-1" x1="1.55" y1="25.68" x2="2.88" y2="26.25"/><line class="cls-1" x1="3.68" y1="24.68" x2="2.54" y2="23.8"/><line class="cls-1" x1="4.82" y1="23.46" x2="3.99" y2="22.26"/><line class="cls-1" x1="6.44" y1="22.56" x2="5.82" y2="21.18"/><line class="cls-1" x1="8.07" y1="22.09" x2="7.84" y2="20.61"/><line class="cls-1" x1="10" y1="21.73" x2="9.67" y2="20.28"/><line class="cls-1" x1="12.09" y1="21.31" x2="11.45" y2="19.72"/><line class="cls-1" x1="14.12" y1="20.51" x2="13.24" y2="19.21"/><line class="cls-1" x1="15.7" y1="19.27" x2="14.46" y2="17.99"/><line class="cls-1" x1="16.76" y1="17.73" x2="15.08" y2="16.86"/><path class="cls-2" d="M18.26,11.23l1.1-1.08a.2.2,0,0,0-.11-.35l-1.48-.22a.2.2,0,0,1-.17-.24l.24-1.42a.21.21,0,0,0-.3-.22l-1.31.69A.21.21,0,0,1,16,8.3l-.69-1.4a.21.21,0,0,0-.37,0l-.68,1.4a.22.22,0,0,1-.29.09l-1.3-.69a.21.21,0,0,0-.3.22l.24,1.42a.2.2,0,0,1-.17.24l-1.48.22a.21.21,0,0,0-.12.35l1.11,1.08a.22.22,0,0,1,0,.3L10.79,12.6a.22.22,0,0,0,.12.36l1.48.21a.21.21,0,0,1,.17.24l-.24,1.43a.2.2,0,0,0,.3.21l1.3-.68a.21.21,0,0,1,.29.09l.68,1.39a.2.2,0,0,0,.37,0L16,14.46a.2.2,0,0,1,.28-.09l1.31.68a.2.2,0,0,0,.3-.21l-.24-1.43a.21.21,0,0,1,.17-.24L19.25,13a.21.21,0,0,0,.11-.36l-1.1-1.07A.22.22,0,0,1,18.26,11.23Z"/></svg>