<svg id="Layer_1" data-name="Layer 1" xmlns="http://www.w3.org/2000/svg" viewBox="0 0 39 34"><defs><style>.cls-1{fill:#fff;stroke:#231f20;stroke-miterlimit:10;stroke-width:0.5px;}</style></defs><path class="cls-1" d="M13.26,20.63a1,1,0,0,0-.42.61l-1.52,7.29a1,1,0,0,0,.77,1.18l.68.14A1,1,0,0,0,14,29.08l1.4-6.72,7.71-6.56a1,1,0,0,0,.12-1.41l-.45-.53a1,1,0,0,0-1.41-.11l-8,6.82Z"/><rect class="cls-1" x="15.82" y="22.78" width="2.69" height="7.9" rx="1.34" transform="translate(28.52 56.4) rotate(-168.22)"/><path class="cls-1" d="M12.23,19.42a1,1,0,0,1-.68.31l-7.43.34a1,1,0,0,1-1-1l0-.69a1,1,0,0,1,1-1l6.85-.31,7.72-6.56a1,1,0,0,1,1.4.11l.45.53a1,1,0,0,1-.11,1.41l-8,6.82Z"/><rect class="cls-1" x="5.49" y="10.63" width="2.69" height="7.9" rx="1.34" transform="translate(21.09 7.1) rotate(87.42)"/><path class="cls-1" d="M18.83,6.82l1.1-1.08a.2.2,0,0,0-.11-.35l-1.48-.21a.21.21,0,0,1-.17-.24l.24-1.43a.21.21,0,0,0-.3-.22L16.8,4a.21.21,0,0,1-.28-.09L15.83,2.5a.2.2,0,0,0-.37,0l-.68,1.39a.22.22,0,0,1-.29.09l-1.3-.69a.21.21,0,0,0-.3.22l.24,1.43a.21.21,0,0,1-.17.24l-1.48.21a.21.21,0,0,0-.12.35l1.11,1.08a.22.22,0,0,1,0,.3L11.36,8.2a.21.21,0,0,0,.12.35L13,8.76a.21.21,0,0,1,.17.24l-.24,1.43a.21.21,0,0,0,.3.22l1.3-.69a.22.22,0,0,1,.29.09l.68,1.39a.2.2,0,0,0,.37,0l.69-1.39A.21.21,0,0,1,16.8,10l1.31.69a.21.21,0,0,0,.3-.22L18.17,9a.21.21,0,0,1,.17-.24l1.48-.21a.2.2,0,0,0,.11-.35l-1.1-1.08A.22.22,0,0,1,18.83,6.82Z"/></svg>