<svg id="Layer_1" data-name="Layer 1" xmlns="http://www.w3.org/2000/svg" viewBox="0 0 142.67 132.05"><defs><style>.cls-1{fill:#253b51;}.cls-2{fill:#ed2390;}.cls-3{fill:#7e69af;}.cls-4{fill:#e3d6e5;}.cls-5{fill:#61c9da;}</style></defs><circle class="cls-1" cx="64.96" cy="64.92" r="63.2"/><path class="cls-2" d="M15.22,103.88s16.6,20,39.08,23.45c26.36,4.1,64.23-6.82,75.83-45.08S119,13,119,13l-9.12,33.32s2.41,26.63-7.12,45.27c-9.11,17.8-32.42,31.37-61.46,23C23.42,109.5,6.78,90.07,6.78,90.07Z"/><path class="cls-3" d="M35.13,121.53c23.8,14.36,66.43,13.86,90.78-18.75s11.94-69.22,11.94-69.22L117.63,62.27S114.08,89,98.07,103.41c-17.5,15.75-45.44,18.82-65.95,7.52C1.85,94.24,1.85,68.18,1.85,68.18S1.08,101,35.13,121.53Z"/><path class="cls-4" d="M24.6,70.56h-.9a11,11,0,0,1-.15-2.25c-.5,1-1.6,2.41-4.54,2.41-4,0-6.11-3.07-6.11-7.07,0-4.21,2.21-7.36,6.33-7.36,3,0,5.05,1.58,5.49,4.18H23.63a4.19,4.19,0,0,0-4.44-3.18c-3.52,0-5.13,2.74-5.13,6.3,0,3.21,1.55,6.13,5,6.13s4.5-2.29,4.5-5.41v-.16H19v-1H24.6Z"/><path class="cls-4" d="M75.88,57.49H71.15v-1H81.73v1H77V70.56H75.88Z"/><path class="cls-4" d="M52.77,63.59c0,3.84-2.05,7.34-6.39,7.34-4,0-6.28-3.19-6.28-7.24s2.24-7.24,6.42-7.24C50.38,56.45,52.77,59.49,52.77,63.59Zm-11.5,0c0,3.24,1.79,6.3,5.17,6.3,3.64,0,5.17-3,5.17-6.32s-1.73-6.15-5.13-6.15C42.86,57.46,41.27,60.46,41.27,63.63Z"/><path class="cls-4" d="M99.21,63.42c0,3.85-2,7.35-6.39,7.35-4,0-6.28-3.2-6.28-7.25s2.23-7.23,6.42-7.23C96.82,56.29,99.21,59.32,99.21,63.42Zm-11.5,0c0,3.24,1.79,6.3,5.16,6.3,3.65,0,5.17-3,5.17-6.32s-1.73-6.15-5.13-6.15C89.3,57.29,87.71,60.29,87.71,63.46Z"/><path class="cls-4" d="M61,57.49H56.29v-1H66.87v1H62.12V70.56H61Z"/><path class="cls-4" d="M33.67,56.49V70.56H32.59V56.49Z"/><path class="cls-5" d="M56.62,87.57c.42,1.87,1.67,3,4,3,2.58,0,3.56-1.29,3.56-2.82s-.7-2.57-3.8-3.34-4.26-1.71-4.26-3.74c0-1.85,1.34-3.58,4.36-3.58s4.41,1.89,4.59,3.6H63.92c-.32-1.51-1.31-2.59-3.52-2.59-2,0-3.14.94-3.14,2.51s.93,2.15,3.52,2.8c4,1,4.55,2.57,4.55,4.26,0,2.07-1.51,3.86-4.77,3.86-3.52,0-4.8-2.05-5.07-3.94Z"/><path class="cls-5" d="M75.4,88.41c0,1,0,2.56,0,2.94h-1a16.3,16.3,0,0,1-.06-1.75,3.07,3.07,0,0,1-3.23,2c-1.45,0-3.3-.56-3.3-3.64V81.29h1v6.42c0,1.47.47,2.9,2.46,2.9,2.25,0,3.09-1.27,3.09-4.15V81.29h1Z"/><path class="cls-5" d="M78.69,76.53h1v2h-1Zm0,4.76h1V91.35h-1Z"/><path class="cls-5" d="M81.63,81.29H83.5V78.16h1v3.13h2.4v.95H84.5v6.54c0,1.12.24,1.77,1.21,1.77a3.92,3.92,0,0,0,1.05-.13v.89a3.6,3.6,0,0,1-1.25.18c-1.29,0-2-.64-2-2.25v-7H81.63Z"/><path class="cls-5" d="M89.05,86.44c0,2.6,1.32,4.21,3.25,4.21a2.84,2.84,0,0,0,2.9-1.89h1a3.87,3.87,0,0,1-4,2.83C89.21,91.59,88,89,88,86.4c0-2.87,1.43-5.35,4.37-5.35,3.09,0,4.08,2.68,4.08,4.57,0,.28,0,.56,0,.82Zm6.37-.88c0-2-1.1-3.56-3.07-3.56s-3,1.45-3.24,3.56Z"/></svg>